<svg width="180" height="180" viewBox="0 0 180 180" fill="none" xmlns="http://www.w3.org/2000/svg">
<g clip-path="url(#clip0_207_91)">
<rect width="180" height="180" rx="90" fill="white"/>
<rect x="-47" y="-85" width="329" height="351" fill="white"/>
<rect x="91.112" y="46.7145" width="60.4078" height="53.8418" transform="rotate(45 91.112 46.7145)" fill="#C2C2C2"/>
<rect x="118.041" y="58.7861" width="59.0946" height="53.8418" transform="rotate(45 118.041 58.7861)" fill="#E1E0E0"/>
<rect x="65.1118" y="54.1432" width="63.0343" height="56.4682" transform="rotate(45 65.1118 54.1432)" fill="#D6D5D5"/>
<rect x="107.421" y="112.301" width="55.155" height="18.385" transform="rotate(15 107.421 112.301)" fill="#D8DA79"/>
<rect x="120.676" y="62.8304" width="55.155" height="18.385" transform="rotate(15 120.676 62.8304)" fill="#D8DA79"/>
<rect x="115.918" y="80.5889" width="55.155" height="32.8303" transform="rotate(15 115.918 80.5889)" fill="#ACAD5F"/>
<rect x="8.05899" y="63.9857" width="39.3964" height="32.8303" transform="rotate(-15 8.05899 63.9857)" fill="#D7E8EA"/>
<rect x="25.0532" y="127.409" width="39.3964" height="32.8303" transform="rotate(-15 25.0532 127.409)" fill="#D7E8EA"/>
<rect x="15.1478" y="49.8505" width="18.385" height="11.8189" transform="rotate(-15 15.1478 49.8505)" fill="#8C9799"/>
<rect x="16.556" y="95.6974" width="39.3964" height="32.8303" transform="rotate(-15 16.556 95.6974)" fill="#B3C8CB"/>
<rect x="8.11084" y="106.166" width="164.152" height="18.385" fill="#6D6D6D"/>
<path fill-rule="evenodd" clip-rule="evenodd" d="M172.263 144.643C151.583 166.25 122.456 179.706 90.1868 179.706C57.917 179.706 28.7901 166.25 8.11084 144.643V124.551H172.263V144.643Z" fill="#4F4F4F"/>
</g>
<defs>
<clipPath id="clip0_207_91">
<rect width="180" height="180" rx="90" fill="white"/>
</clipPath>
</defs>
</svg>
